<svg width="12" height="12" viewBox="0 0 12 12" fill="none" xmlns="http://www.w3.org/2000/svg">
<path d="M1.33333 1.6665C0.979711 1.6665 0.640573 1.80698 0.390524 2.05703C0.140476 2.30708 0 2.64622 0 2.99984L0 8.99984C0 9.35346 0.140476 9.6926 0.390524 9.94265C0.640573 10.1927 0.979711 10.3332 1.33333 10.3332H3.33333V1.6665H1.33333ZM10.6667 1.6665H8.66667V10.3332H10.6667C11.0203 10.3332 11.3594 10.1927 11.6095 9.94265C11.8595 9.6926 12 9.35346 12 8.99984V2.99984C12 2.64622 11.8595 2.30708 11.6095 2.05703C11.3594 1.80698 11.0203 1.6665 10.6667 1.6665Z" fill="#D52B1E"/>
<path d="M3.33334 1.6665H8.66668V10.3332H3.33334V1.6665Z" fill="#EEEEEE"/>
<path d="M6.20501 7.37086C6.60435 7.41719 6.96235 7.45886 7.36135 7.50452L7.25968 7.17052C7.2522 7.14178 7.25323 7.11149 7.26263 7.08333C7.27204 7.05516 7.28943 7.03033 7.31268 7.01186L8.47235 6.06719L8.23235 5.95419C8.12668 5.91652 8.15568 5.85686 8.19401 5.71352L8.37101 5.06819L7.69735 5.21052C7.63168 5.22052 7.58801 5.17886 7.57801 5.13886L7.49101 4.83519L6.95835 5.43319C6.88268 5.52919 6.72935 5.52919 6.77701 5.30786L7.00468 4.09652L6.69901 4.25486C6.61335 4.30286 6.52768 4.31086 6.48001 4.22519L6.05835 3.43652L5.63668 4.22519C5.58868 4.31086 5.50301 4.30286 5.41735 4.25486L5.11201 4.09652L5.33968 5.30786C5.38768 5.52919 5.23401 5.52919 5.15835 5.43319L4.62568 4.83552L4.53901 5.13919C4.52901 5.17919 4.48501 5.22086 4.41935 5.21086L3.74568 5.06852L3.92268 5.71386C3.96035 5.85719 3.98968 5.91686 3.88401 5.95452L3.64401 6.06752L4.80368 7.01219C4.84968 7.04786 4.87301 7.11219 4.85635 7.17086L4.75468 7.50486L5.91135 7.37119C5.94668 7.37119 5.97001 7.39086 5.96968 7.43152L5.89835 8.66619H6.21701L6.14601 7.43152C6.14668 7.39052 6.16968 7.37086 6.20501 7.37086Z" fill="#D52B1E"/>
</svg>
