<svg width="12" height="12" viewBox="0 0 12 12" fill="none" xmlns="http://www.w3.org/2000/svg">
<g clipPath="url(#clip0_920_13)">
<path d="M10.6667 1.6665H1.33333C1.265 1.6665 1.19767 1.6715 1.132 1.6815L1.13067 2.26617L0.220668 2.26484C0.0763838 2.48278 -0.000377347 2.73846 1.39481e-06 2.99984V8.99984C1.39481e-06 9.35346 0.140477 9.6926 0.390526 9.94265C0.640574 10.1927 0.979713 10.3332 1.33333 10.3332H10.6667C11.0203 10.3332 11.3594 10.1927 11.6095 9.94265C11.8595 9.6926 12 9.35346 12 8.99984V2.99984C12 2.64622 11.8595 2.30708 11.6095 2.05703C11.3594 1.80698 11.0203 1.6665 10.6667 1.6665Z" fill="#00247D"/>
<path d="M9.26765 3.9276L9.53831 3.73093H9.20365L9.10031 3.4126L8.99698 3.73093H8.66231L8.93298 3.9276L8.82965 4.2456L9.10031 4.04926L9.37098 4.2456L9.26765 3.9276ZM10.1216 4.1746L10.449 4.10526L10.1433 3.96893L10.1783 3.63626L9.95431 3.88493L9.64898 3.7486L9.81598 4.0386L9.59198 4.28693L9.91931 4.2176L10.0866 4.50726L10.1216 4.1746ZM10.805 4.76193L11.1326 4.8306L10.908 4.5826L11.0746 4.2926L10.7693 4.42926L10.545 4.18093L10.5806 4.5136L10.2753 4.6506L10.6026 4.71926L10.6383 5.05193L10.805 4.76193ZM11.1863 5.56193L11.4583 5.75693L11.353 5.43926L11.6226 5.24126L11.2883 5.24326L11.183 4.9256L11.0813 5.24426L10.747 5.24593L11.0186 5.44126L10.917 5.75993L11.1863 5.56193ZM11.2133 6.4586L11.381 6.74793L11.4153 6.41526L11.7426 6.34493L11.4366 6.2096L11.471 5.8766L11.2476 6.1256L10.9416 5.99026L11.1096 6.2796L10.886 6.5286L11.2133 6.4586ZM10.8673 7.27393L10.9023 7.6066L11.0696 7.31693L11.397 7.3866L11.173 7.13793L11.3406 6.84826L11.035 6.98426L10.811 6.73526L10.846 7.06826L10.5403 7.20393L10.8673 7.27393ZM10.2213 7.9006L10.1193 8.21926L10.389 8.0216L10.6606 8.21726L10.556 7.89926L10.8256 7.7016L10.4913 7.70293L10.3866 7.38526L10.2843 7.70393L9.94998 7.70526L10.2213 7.9006ZM9.38131 8.1936L9.15831 8.44293L9.48531 8.37226L9.65365 8.66126L9.68731 8.3286L10.0143 8.2576L9.70798 8.1226L9.74198 7.78993L9.51898 8.03926L9.21265 7.90426L9.38131 8.1936ZM8.07931 4.1746L7.75198 4.10526L8.05765 3.96893L8.02265 3.63626L8.24631 3.88493L8.55198 3.7486L8.38465 4.0386L8.60865 4.28693L8.28131 4.2176L8.11431 4.50726L8.07931 4.1746ZM7.39565 4.76193L7.06831 4.8306L7.29265 4.5826L7.12598 4.2926L7.43131 4.42926L7.65565 4.18093L7.61998 4.5136L7.92531 4.6506L7.59798 4.71926L7.56231 5.05193L7.39565 4.76193ZM7.01431 5.56193L6.74265 5.75693L6.84765 5.43926L6.57798 5.24126L6.91265 5.24326L7.01765 4.9256L7.11931 5.24426L7.45398 5.24593L7.18231 5.44126L7.28398 5.75993L7.01431 5.56193ZM6.98765 6.4586L6.81998 6.74793L6.78531 6.41526L6.45831 6.34493L6.76431 6.2096L6.72965 5.8766L6.95331 6.1256L7.25898 5.99026L7.09131 6.2796L7.31465 6.5286L6.98765 6.4586ZM7.33331 7.27393L7.29865 7.6066L7.13131 7.31693L6.80398 7.3866L7.02765 7.13793L6.86031 6.84826L7.16598 6.98426L7.38965 6.73526L7.35498 7.06826L7.66065 7.20393L7.33331 7.27393ZM7.97965 7.9006L8.08165 8.21926L7.81165 8.0216L7.54031 8.21726L7.64498 7.89926L7.37498 7.7016L7.70965 7.70293L7.81431 7.38526L7.91631 7.70393L8.25098 7.70526L7.97965 7.9006ZM8.81965 8.1936L9.04265 8.44293L8.71565 8.37226L8.54731 8.66126L8.51365 8.3286L8.18665 8.2576L8.49265 8.1226L8.45898 7.78993L8.68198 8.03926L8.98798 7.90426L8.81965 8.1936Z" fill="white"/>
<path d="M6.33333 5.99984V1.6665H1.33333C1.22667 1.6665 1.132 1.6815 1.132 1.6815L1.13067 2.26617L0.220668 2.26484C0.220668 2.26484 0.206668 2.2845 0.178334 2.33317C0.0612386 2.53582 -0.000278815 2.76579 9.49975e-07 2.99984V5.99984H6.33333Z" fill="#00247D"/>
<path d="M6.33333 1.6665H5.55633L4 2.75617V1.6665H2.33333V2.52284L1.132 1.6815C0.931617 1.71144 0.740871 1.7873 0.574667 1.90317L2.142 2.99984H1.56333L0.322333 2.13017C0.285736 2.17295 0.251784 2.21792 0.220667 2.26484L1.271 2.99984H0V4.6665H1.295L0 5.5885V5.99984H1.11067L2.33333 5.14384V5.99984H4V4.91017L5.556 5.99984H6.33333V5.3235L5.395 4.6665H6.33333V2.99984H5.39533L6.33333 2.34284V1.6665Z" fill="#EEEEEE"/>
<path d="M3.66667 1.6665H2.66667V3.33317H0V4.33317H2.66667V5.99984H3.66667V4.33317H6.33333V3.33317H3.66667V1.6665Z" fill="#CF1B2B"/>
<path d="M6.33336 1.6665H5.84636L4.00002 2.9595V2.99984H4.52369L6.33336 1.7325V1.6665ZM0.57469 1.90317C0.481368 1.96793 0.396588 2.04419 0.322357 2.13017L1.56336 2.99984H2.14169L0.57469 1.90317ZM2.14569 4.6665L0.24469 5.99984H0.820357L2.33336 4.9405V4.6665H2.14569ZM6.33336 5.93384V5.52717L5.10436 4.6665H4.52336L6.33336 5.93384Z" fill="#CF1B2B"/>
</g>
<defs>
<clipPath id="clip0_920_13">
<rect width="12" height="12" fill="white"/>
</clipPath>
</defs>
</svg>
