<svg width="12" height="12" viewBox="0 0 12 12" fill="none" xmlns="http://www.w3.org/2000/svg">
<path d="M11.8973 9.5125H0.102667C0.20388 9.7555 0.374756 9.9631 0.593761 10.1091C0.812766 10.2552 1.0701 10.3331 1.33333 10.3332H10.6667C10.9299 10.3331 11.1872 10.2552 11.4062 10.1091C11.6252 9.9631 11.7961 9.7555 11.8973 9.5125ZM0 7.93684H12V8.7905H0V7.93684ZM3.83333 3.2095H12V4.06317H3.83333V3.2095ZM11.8973 2.48717C11.7961 2.24417 11.6252 2.03657 11.4062 1.89053C11.1872 1.74449 10.9299 1.66654 10.6667 1.6665H3.83333V2.48717H11.8973ZM3.83333 4.78517H12V5.63884H3.83333V4.78517ZM0 6.36084H12V7.2145H0V6.36084Z" fill="#BF0A30"/>
<path d="M3.83333 4.06297H12V4.7853H3.83333V4.06297ZM0 5.63897V6.36097H12V5.63897H4H0ZM3.83333 2.4873V3.20964H12V2.99997C12 2.8183 11.963 2.6453 11.8973 2.4873H3.83333ZM0 7.21464H12V7.93697H0V7.21464ZM0 8.99997C0 9.18164 0.037 9.35464 0.102667 9.51264H11.897C11.965 9.35027 12 9.176 12 8.99997V8.7903H0V8.99997Z" fill="#EEEEEE"/>
<path d="M1.33333 1.6665C0.979711 1.6665 0.640573 1.80698 0.390524 2.05703C0.140476 2.30708 0 2.64622 0 2.99984L0 5.63884H4V1.6665H1.33333Z" fill="#002868"/>
<path d="M2.26467 3.41492L2 2.60059L1.73533 3.41492H0.879333L1.572 3.91825L1.30733 4.73259L2 4.22925L2.69267 4.73259L2.428 3.91825L3.12067 3.41492H2.26467Z" fill="white"/>
</svg>
