<svg width="14" height="15" viewBox="0 0 14 15" fill="none" xmlns="http://www.w3.org/2000/svg">
<path d="M7 14.5479C8.85652 14.5479 10.637 13.8104 11.9497 12.4976C13.2625 11.1848 14 9.40437 14 7.54785C14 5.69134 13.2625 3.91086 11.9497 2.5981C10.637 1.28535 8.85652 0.547852 7 0.547852C5.14348 0.547852 3.36301 1.28535 2.05025 2.5981C0.737498 3.91086 0 5.69134 0 7.54785C0 9.40437 0.737498 11.1848 2.05025 12.4976C3.36301 13.8104 5.14348 14.5479 7 14.5479ZM10.0898 6.2627L6.58984 9.7627C6.33281 10.0197 5.91719 10.0197 5.66289 9.7627L3.91289 8.0127C3.65586 7.75566 3.65586 7.34004 3.91289 7.08574C4.16992 6.83145 4.58555 6.82871 4.83984 7.08574L6.125 8.3709L9.16016 5.33301C9.41719 5.07598 9.83281 5.07598 10.0871 5.33301C10.3414 5.59004 10.3441 6.00566 10.0871 6.25996L10.0898 6.2627Z" fill="#16A34A"/>
</svg>
